<?xml version="1.0" encoding="UTF-8" standalone="no"?>
<!-- Created with Inkscape (http://www.inkscape.org/) -->

<svg
   width="30mm"
   height="40mm"
   viewBox="0 0 30 40"
   version="1.1"
   id="svg1"
   inkscape:version="1.4.1 (93de688d07, 2025-03-30)"
   sodipodi:docname="middlefingerlove.svg"
   xmlns:inkscape="http://www.inkscape.org/namespaces/inkscape"
   xmlns:sodipodi="http://sodipodi.sourceforge.net/DTD/sodipodi-0.dtd"
   xmlns="http://www.w3.org/2000/svg"
   xmlns:svg="http://www.w3.org/2000/svg"
   xmlns:rdf="http://www.w3.org/1999/02/22-rdf-syntax-ns#"
   xmlns:cc="http://creativecommons.org/ns#"
   xmlns:dc="http://purl.org/dc/elements/1.1/">
  <title
     id="title1">MiddlefingerLove</title>
  <sodipodi:namedview
     id="namedview1"
     pagecolor="#ffffff"
     bordercolor="#666666"
     borderopacity="1.0"
     inkscape:showpageshadow="2"
     inkscape:pageopacity="0.0"
     inkscape:pagecheckerboard="0"
     inkscape:deskcolor="#d1d1d1"
     inkscape:document-units="mm"
     showgrid="true"
     inkscape:zoom="2.3130963"
     inkscape:cx="299.38226"
     inkscape:cy="111.53881"
     inkscape:window-width="1920"
     inkscape:window-height="1146"
     inkscape:window-x="0"
     inkscape:window-y="0"
     inkscape:window-maximized="1"
     inkscape:current-layer="layer1" />
  <defs
     id="defs1" />
  <g
     inkscape:label="Layer 1"
     inkscape:groupmode="layer"
     id="layer1">
    <path
       style="fill:#ff0000;fill-opacity:1;stroke:#000000;stroke-width:0.264583px;stroke-linecap:butt;stroke-linejoin:miter;stroke-opacity:1"
       d="M 15,35 C 15,30 5.0000001,23.999997 5.0000001,18.999997 c 0,-2 1,-2.99999 2,-3 1,0 2,1 2,3 v -2 c 0,-1 0,-3 1.9999999,-3 2,0 2,2 2,3 0,0 10e-6,2.99999 0,2 V 8.9999973 c 0,-2 0,-4 2,-4 2,0 2,2 2,3.99999 0,0 10e-6,10.9999997 0,10.0000097 10e-6,0.99999 0,-2 0,-2 10e-6,-1.00001 0,-3 2,-3 2.000001,0 2.000001,2 2.000001,3 0,0 3e-5,1.82985 3e-5,3 0,0 -3e-5,2 0,1 1.3e-4,-5 2.99997,-5 4.12239,-0.43353 C 26.419681,25.844277 15,30.32363 15,35 Z"
       id="path3-3-1-3-6-2-5"
       sodipodi:nodetypes="cssccsccsssccccsssc" />
  </g>
  <metadata
     id="metadata1">
    <rdf:RDF>
      <cc:Work
         rdf:about="">
        <dc:creator>
          <cc:Agent>
            <dc:title>Roman Sommer (etXzat)</dc:title>
          </cc:Agent>
        </dc:creator>
        <dc:title>MiddlefingerLove</dc:title>
        <dc:date>2025-04-18</dc:date>
        <cc:license
           rdf:resource="http://creativecommons.org/licenses/by-sa/4.0/" />
      </cc:Work>
      <cc:License
         rdf:about="http://creativecommons.org/licenses/by-sa/4.0/">
        <cc:permits
           rdf:resource="http://creativecommons.org/ns#Reproduction" />
        <cc:permits
           rdf:resource="http://creativecommons.org/ns#Distribution" />
        <cc:requires
           rdf:resource="http://creativecommons.org/ns#Notice" />
        <cc:requires
           rdf:resource="http://creativecommons.org/ns#Attribution" />
        <cc:permits
           rdf:resource="http://creativecommons.org/ns#DerivativeWorks" />
        <cc:requires
           rdf:resource="http://creativecommons.org/ns#ShareAlike" />
      </cc:License>
    </rdf:RDF>
  </metadata>
</svg>
